nColumns=28
nRows=66
DataType=double
version=3
OpenSimVersion=4.1
endheader
time	ground_force_1_vx	ground_force_1_vy	ground_force_1_vz	ground_force_1_px	ground_force_1_py	ground_force_1_pz	ground_force_1_mx	ground_force_1_my	ground_force_1_mz	ground_force_2_vx	ground_force_2_vy	ground_force_2_vz	ground_force_2_px	ground_force_2_py	ground_force_2_pz	ground_force_2_mx	ground_force_2_my	ground_force_2_mz	ground_force_3_vx	ground_force_3_vy	ground_force_3_vz	ground_force_3_px	ground_force_3_py	ground_force_3_pz	ground_force_3_mx	ground_force_3_my	ground_force_3_mz
1.29	-2.70681	275.915	-20.169	-0.221255	0.006	-0.462048	0	-0.794587	0	0.123046	313.186	22.4454	-0.223581	0.006	-0.731737	0	1.22635	0	0	0	0	0	0	0	0	0	0
1.3	-2.76509	275.851	-20.1477	-0.221225	0.006	-0.462118	0	-0.788521	0	0.12665	313.277	22.42	-0.22328	0.006	-0.73189	0	1.22645	0	0	0	0	0	0	0	0	0	0
1.31	-2.78931	276.055	-20.1637	-0.221134	0.006	-0.462106	0	-0.788402	0	0.0777761	313.126	22.3547	-0.223242	0.006	-0.731782	0	1.21685	0	0	0	0	0	0	0	0	0	0
1.32	-2.76381	276.01	-20.1965	-0.221093	0.006	-0.462179	0	-0.810734	0	0.0751207	312.959	22.3276	-0.223148	0.006	-0.731697	0	1.23759	0	0	0	0	0	0	0	0	0	0
1.33	-2.87324	275.875	-20.1218	-0.221041	0.006	-0.462246	0	-0.790563	0	0.0411685	312.72	22.3689	-0.222869	0.006	-0.731676	0	1.25454	0	0	0	0	0	0	0	0	0	0
1.34	-2.93897	276.199	-20.0705	-0.220881	0.006	-0.46207	0	-0.777965	0	0.0046574	312.471	22.384	-0.22281	0.006	-0.731793	0	1.25417	0	0	0	0	0	0	0	0	0	0
1.35	-2.87464	276.446	-20.1285	-0.220753	0.006	-0.462009	0	-0.800423	0	0.0370145	312.348	22.3092	-0.223051	0.006	-0.731934	0	1.26941	0	0	0	0	0	0	0	0	0	0
1.36	-2.87429	276.23	-20.078	-0.2208	0.006	-0.462099	0	-0.806676	0	0.0218478	312.226	22.2081	-0.223191	0.006	-0.731962	0	1.26555	0	0	0	0	0	0	0	0	0	0
1.37	-2.92601	276.208	-20.0238	-0.220807	0.006	-0.462126	0	-0.814185	0	0.0018003	312.096	22.1503	-0.223089	0.006	-0.731871	0	1.25051	0	0	0	0	0	0	0	0	0	0
1.38	-2.94827	276.368	-20.0802	-0.22085	0.006	-0.462204	0	-0.811965	0	-0.0265995	311.932	22.1445	-0.223073	0.006	-0.731851	0	1.23231	0	0	0	0	0	0	0	0	0	0
1.39	-2.94989	276.648	-20.0832	-0.220916	0.006	-0.462206	0	-0.795445	0	-0.0593451	311.838	22.1455	-0.223099	0.006	-0.731872	0	1.21989	0	0	0	0	0	0	0	0	0	0
1.4	-2.83411	277.233	-20.0942	-0.220918	0.006	-0.462023	0	-0.803092	0	-0.0593357	311.735	22.1039	-0.223155	0.006	-0.731832	0	1.21665	0	0	0	0	0	0	0	0	0	0
1.41	-2.77447	277.617	-20.1238	-0.221032	0.006	-0.461916	0	-0.815662	0	-0.0459885	311.598	22.0929	-0.223136	0.006	-0.731847	0	1.22059	0	0	0	0	0	0	0	0	0	0
1.42	-2.8116	277.811	-20.1555	-0.221091	0.006	-0.46198	0	-0.818618	0	-0.0224822	311.264	22.0838	-0.223064	0.006	-0.731792	0	1.2233	0	0	0	0	0	0	0	0	0	0
1.43	-2.72752	278.294	-20.1897	-0.22105	0.006	-0.461796	0	-0.820488	0	-0.00995475	310.982	22.0508	-0.223109	0.006	-0.731669	0	1.22823	0	0	0	0	0	0	0	0	0	0
1.44	-2.65064	278.865	-20.179	-0.221035	0.006	-0.461653	0	-0.817887	0	0.0082164	310.778	22.0097	-0.223131	0.006	-0.731624	0	1.23982	0	0	0	0	0	0	0	0	0	0
1.45	-2.62384	279.255	-20.1667	-0.221133	0.006	-0.461641	0	-0.810353	0	0.0312555	310.669	22.0333	-0.223018	0.006	-0.731558	0	1.24498	0	0	0	0	0	0	0	0	0	0
1.46	-2.57401	279.367	-20.1455	-0.221203	0.006	-0.46176	0	-0.810075	0	0.0528103	310.621	22.0469	-0.222876	0.006	-0.731439	0	1.24228	0	0	0	0	0	0	0	0	0	0
1.47	-2.49437	279.517	-20.1691	-0.221247	0.006	-0.461759	0	-0.804337	0	0.131474	310.533	21.9659	-0.222945	0.006	-0.731501	0	1.23037	0	0	0	0	0	0	0	0	0	0
1.48	-2.44412	279.724	-20.2118	-0.221289	0.006	-0.461651	0	-0.795549	0	0.173341	310.202	21.9037	-0.222963	0.006	-0.731564	0	1.22691	0	0	0	0	0	0	0	0	0	0
1.49	-2.45452	279.69	-20.2102	-0.221221	0.006	-0.461635	0	-0.79518	0	0.124941	309.681	21.9197	-0.223019	0.006	-0.73144	0	1.23642	0	0	0	0	0	0	0	0	0	0
1.5	-2.37428	279.678	-20.2631	-0.221126	0.006	-0.461556	0	-0.807725	0	0.0550499	309.216	21.8902	-0.223066	0.006	-0.73144	0	1.23449	0	0	0	0	0	0	0	0	0	0
1.51	-2.29777	279.627	-20.2677	-0.221126	0.006	-0.461483	0	-0.830388	0	0.0270857	308.995	21.8222	-0.22296	0.006	-0.731403	0	1.22538	0	0	0	0	0	0	0	0	0	0
1.52	-2.25384	279.396	-20.264	-0.221184	0.006	-0.461585	0	-0.83889	0	0.0167832	308.656	21.7597	-0.22301	0.006	-0.731275	0	1.22412	0	0	0	0	0	0	0	0	0	0
1.53	-2.36181	278.99	-20.2728	-0.221214	0.006	-0.461801	0	-0.809346	0	0.0107169	308.333	21.7372	-0.222819	0.006	-0.731164	0	1.22506	0	0	0	0	0	0	0	0	0	0
1.54	-2.38686	278.924	-20.2318	-0.221265	0.006	-0.461845	0	-0.806555	0	0.0765387	308.107	21.6968	-0.222682	0.006	-0.731113	0	1.24398	0	0	0	0	0	0	0	0	0	0
1.55	-2.37574	279.074	-20.1836	-0.221291	0.006	-0.461796	0	-0.837059	0	0.131699	308.091	21.697	-0.222732	0.006	-0.731107	0	1.23886	0	0	0	0	0	0	0	0	0	0
1.56	-2.36933	279.269	-20.1424	-0.221328	0.006	-0.461801	0	-0.829247	0	0.158824	308.243	21.691	-0.22284	0.006	-0.731195	0	1.2185	0	0	0	0	0	0	0	0	0	0
1.57	-2.16727	279.693	-20.2439	-0.221359	0.006	-0.461713	0	-0.832766	0	0.237393	308.507	21.6724	-0.222963	0.006	-0.731433	0	1.21253	0	0	0	0	0	0	0	0	0	0
1.58	-2.06962	280.056	-20.313	-0.221374	0.006	-0.461689	0	-0.846437	0	0.254346	308.638	21.6826	-0.22289	0.006	-0.731421	0	1.23312	0	0	0	0	0	0	0	0	0	0
1.59	-2.07053	280.268	-20.2952	-0.221454	0.006	-0.461609	0	-0.853785	0	0.271324	308.665	21.6599	-0.22292	0.006	-0.731274	0	1.24447	0	0	0	0	0	0	0	0	0	0
1.6	-2.10642	280.471	-20.2843	-0.221478	0.006	-0.461605	0	-0.830873	0	0.300834	308.735	21.6666	-0.222996	0.006	-0.731236	0	1.23602	0	0	0	0	0	0	0	0	0	0
1.61	-2.10154	280.693	-20.3292	-0.221494	0.006	-0.461617	0	-0.816084	0	0.355816	308.756	21.7307	-0.223154	0.006	-0.731078	0	1.24931	0	0	0	0	0	0	0	0	0	0
1.62	-2.0761	280.696	-20.3251	-0.22154	0.006	-0.461709	0	-0.819578	0	0.410054	308.579	21.7613	-0.223357	0.006	-0.730889	0	1.25959	0	0	0	0	0	0	0	0	0	0
1.63	-2.11274	280.529	-20.258	-0.221586	0.006	-0.461838	0	-0.824694	0	0.436918	308.506	21.7427	-0.223232	0.006	-0.731022	0	1.22781	0	0	0	0	0	0	0	0	0	0
1.64	-2.07535	280.613	-20.2774	-0.221531	0.006	-0.461736	0	-0.833234	0	0.393448	308.506	21.7548	-0.223219	0.006	-0.731158	0	1.21349	0	0	0	0	0	0	0	0	0	0
1.65	-2.09349	280.999	-20.3114	-0.221454	0.006	-0.46145	0	-0.823902	0	0.353674	308.569	21.8092	-0.223246	0.006	-0.731229	0	1.23701	0	0	0	0	0	0	0	0	0	0
1.66	-2.26015	280.909	-20.2357	-0.22147	0.006	-0.461512	0	-0.793113	0	0.336676	308.52	21.7981	-0.223336	0.006	-0.731306	0	1.24718	0	0	0	0	0	0	0	0	0	0
1.67	-2.37126	280.714	-20.2211	-0.221488	0.006	-0.461654	0	-0.792891	0	0.348258	308.357	21.7731	-0.223549	0.006	-0.731308	0	1.2613	0	0	0	0	0	0	0	0	0	0
1.68	-2.34107	280.68	-20.2675	-0.221479	0.006	-0.461692	0	-0.80365	0	0.305349	308.371	21.7619	-0.223654	0.006	-0.731325	0	1.26867	0	0	0	0	0	0	0	0	0	0
1.69	-2.28156	280.668	-20.2815	-0.221509	0.006	-0.461688	0	-0.806321	0	0.247563	308.398	21.7388	-0.223817	0.006	-0.731344	0	1.27831	0	0	0	0	0	0	0	0	0	0
1.7	-2.2688	280.71	-20.2747	-0.22151	0.006	-0.461648	0	-0.811531	0	0.238704	308.432	21.7255	-0.223978	0.006	-0.731347	0	1.28726	0	0	0	0	0	0	0	0	0	0
1.71	-2.24823	280.69	-20.2185	-0.22145	0.006	-0.46156	0	-0.815351	0	0.257545	308.371	21.7517	-0.224022	0.006	-0.731348	0	1.27905	0	0	0	0	0	0	0	0	0	0
1.72	-2.25987	280.647	-20.1963	-0.221439	0.006	-0.461592	0	-0.809789	0	0.308294	308.207	21.7749	-0.223875	0.006	-0.731197	0	1.26316	0	0	0	0	0	0	0	0	0	0
1.73	-2.41468	280.57	-20.1971	-0.221451	0.006	-0.461609	0	-0.782955	0	0.340735	307.986	21.8054	-0.22371	0.006	-0.731055	0	1.26063	0	0	0	0	0	0	0	0	0	0
1.74	-2.49002	280.472	-20.1713	-0.221374	0.006	-0.46174	0	-0.794504	0	0.308176	307.772	21.7914	-0.223595	0.006	-0.73095	0	1.25503	0	0	0	0	0	0	0	0	0	0
1.75	-2.40753	280.542	-20.2223	-0.221369	0.006	-0.461759	0	-0.82177	0	0.284773	307.64	21.7686	-0.223661	0.006	-0.730866	0	1.27426	0	0	0	0	0	0	0	0	0	0
1.76	-2.39576	280.458	-20.2685	-0.221493	0.006	-0.461708	0	-0.798687	0	0.313036	307.557	21.7493	-0.22394	0.006	-0.730852	0	1.30977	0	0	0	0	0	0	0	0	0	0
1.77	-2.45195	280.283	-20.2272	-0.221606	0.006	-0.461831	0	-0.773755	0	0.320834	307.528	21.7645	-0.224017	0.006	-0.730831	0	1.31573	0	0	0	0	0	0	0	0	0	0
1.78	-2.44327	280.364	-20.176	-0.221604	0.006	-0.461817	0	-0.777313	0	0.320102	307.809	21.7758	-0.223867	0.006	-0.730945	0	1.31691	0	0	0	0	0	0	0	0	0	0
1.79	-2.33607	280.664	-20.1933	-0.221534	0.006	-0.461684	0	-0.798096	0	0.372185	308.137	21.8051	-0.223903	0.006	-0.731051	0	1.32157	0	0	0	0	0	0	0	0	0	0
1.8	-2.38933	280.705	-20.1772	-0.221578	0.006	-0.461773	0	-0.787167	0	0.423925	308.23	21.8049	-0.224156	0.006	-0.731027	0	1.31826	0	0	0	0	0	0	0	0	0	0
1.81	-2.45036	280.551	-20.1487	-0.221619	0.006	-0.461934	0	-0.777737	0	0.430824	308.339	21.8398	-0.224145	0.006	-0.731014	0	1.31049	0	0	0	0	0	0	0	0	0	0
1.82	-2.41348	280.72	-20.1786	-0.22155	0.006	-0.461786	0	-0.779618	0	0.439505	308.421	21.934	-0.223992	0.006	-0.731017	0	1.31252	0	0	0	0	0	0	0	0	0	0
1.83	-2.44435	280.598	-20.1801	-0.221426	0.006	-0.461879	0	-0.772034	0	0.440224	308.459	21.9601	-0.223896	0.006	-0.731068	0	1.30025	0	0	0	0	0	0	0	0	0	0
1.84	-2.38639	280.597	-20.1824	-0.221435	0.006	-0.461899	0	-0.785346	0	0.433008	308.483	21.9928	-0.223847	0.006	-0.731064	0	1.27148	0	0	0	0	0	0	0	0	0	0
1.85	-2.41085	280.57	-20.1563	-0.221474	0.006	-0.461757	0	-0.775279	0	0.43388	308.539	21.9321	-0.224031	0.006	-0.731096	0	1.26701	0	0	0	0	0	0	0	0	0	0
1.86	-2.51009	280.332	-20.1353	-0.221475	0.006	-0.461734	0	-0.762387	0	0.467621	308.521	21.8376	-0.224137	0.006	-0.731096	0	1.26162	0	0	0	0	0	0	0	0	0	0
1.87	-2.55106	280.071	-20.1529	-0.221519	0.006	-0.461947	0	-0.76175	0	0.48204	308.402	21.8157	-0.224228	0.006	-0.731072	0	1.25445	0	0	0	0	0	0	0	0	0	0
1.88	-2.43395	280.133	-20.1568	-0.221527	0.006	-0.461807	0	-0.783973	0	0.477103	308.231	21.8451	-0.224248	0.006	-0.731104	0	1.26833	0	0	0	0	0	0	0	0	0	0
1.89	-2.3359	279.879	-20.1286	-0.221487	0.006	-0.46179	0	-0.790888	0	0.473926	308.244	21.8919	-0.224203	0.006	-0.731109	0	1.26591	0	0	0	0	0	0	0	0	0	0
1.9	-2.2843	279.741	-20.1311	-0.221486	0.006	-0.461905	0	-0.781108	0	0.48425	308.206	21.8562	-0.224161	0.006	-0.731098	0	1.25975	0	0	0	0	0	0	0	0	0	0
1.91	-2.29362	279.946	-20.1232	-0.221599	0.006	-0.461821	0	-0.770652	0	0.475577	308.127	21.8158	-0.224233	0.006	-0.731078	0	1.25467	0	0	0	0	0	0	0	0	0	0
1.92	-2.31097	280.064	-20.129	-0.221647	0.006	-0.461808	0	-0.769924	0	0.49938	308.236	21.8341	-0.224325	0.006	-0.73117	0	1.24694	0	0	0	0	0	0	0	0	0	0
1.93	-2.31232	280.167	-20.1823	-0.221588	0.006	-0.461817	0	-0.769563	0	0.540987	308.388	21.8592	-0.224191	0.006	-0.731331	0	1.2158	0	0	0	0	0	0	0	0	0	0
1.94	-2.35266	280.203	-20.1555	-0.221607	0.006	-0.461782	0	-0.755674	0	0.533279	308.43	21.8651	-0.224158	0.006	-0.731355	0	1.2025	0	0	0	0	0	0	0	0	0	0
